<svg width="26" height="27" viewBox="0 0 26 27" fill="none" xmlns="http://www.w3.org/2000/svg">
<path d="M21.4823 8.625L19.0232 6.16583C19.099 5.71083 19.2182 5.28833 19.3698 4.92C19.489 4.63833 19.5323 4.31333 19.4673 3.9775C19.3265 3.1975 18.5682 2.65583 17.7665 2.66666C16.044 2.69916 14.5165 3.54416 13.5415 4.83333H8.12484C4.8315 4.83333 2.1665 7.49833 2.1665 10.7917C2.1665 13.2292 3.65067 18.895 4.41984 21.6683C4.67984 22.6 5.53567 23.25 6.51067 23.25H8.6665C9.85817 23.25 10.8332 22.275 10.8332 21.0833H12.9998C12.9998 22.275 13.9748 23.25 15.1665 23.25H17.344C18.2973 23.25 19.1423 22.6217 19.424 21.7008L20.7782 17.1942L23.0965 16.4142C23.5407 16.2625 23.8332 15.8508 23.8332 15.385V9.70833C23.8332 9.1125 23.3457 8.625 22.7498 8.625H21.4823ZM12.9998 10.25H9.74984C9.154 10.25 8.6665 9.7625 8.6665 9.16666C8.6665 8.57083 9.154 8.08333 9.74984 8.08333H12.9998C13.5957 8.08333 14.0832 8.57083 14.0832 9.16666C14.0832 9.7625 13.5957 10.25 12.9998 10.25ZM17.3332 12.4167C16.7373 12.4167 16.2498 11.9292 16.2498 11.3333C16.2498 10.7375 16.7373 10.25 17.3332 10.25C17.929 10.25 18.4165 10.7375 18.4165 11.3333C18.4165 11.9292 17.929 12.4167 17.3332 12.4167Z" fill="#C8FF00"/>
</svg>
