<svg width="26" height="27" viewBox="0 0 26 27" fill="none" xmlns="http://www.w3.org/2000/svg">
<path d="M21.0815 11.3334C20.9747 11.4913 20.9114 11.6747 20.8981 11.8649C20.8847 12.0551 20.9219 12.2455 21.0057 12.4167C21.2746 13.0443 21.4638 13.703 21.569 14.3776C21.8479 16.1219 21.5871 17.9098 20.8215 19.5017C20.7285 19.6763 20.5895 19.8222 20.4196 19.9234C20.2496 20.0246 20.0552 20.0773 19.8574 20.0759H6.15319C5.95426 20.0763 5.75906 20.0219 5.58898 19.9188C5.41891 19.8156 5.28053 19.6675 5.18902 19.4909C4.49556 18.0841 4.19684 16.5155 4.32472 14.9523C4.4526 13.3892 5.00228 11.89 5.91516 10.6146C6.82804 9.33924 8.0699 8.3355 9.50836 7.7104C10.9468 7.0853 12.5279 6.86226 14.0832 7.06506C14.8701 7.15756 15.6398 7.36184 16.369 7.67173C16.5403 7.75555 16.7307 7.79268 16.9209 7.77936C17.1111 7.76605 17.2944 7.70276 17.4524 7.5959C17.6169 7.4875 17.7487 7.33629 17.8337 7.15853C17.9187 6.98077 17.9536 6.7832 17.9347 6.58708C17.9157 6.39096 17.8437 6.20372 17.7262 6.04552C17.6088 5.88731 17.4504 5.76413 17.2682 5.68923C15.1754 4.79186 12.8531 4.57674 10.631 5.07444C8.40904 5.57213 6.40034 6.75733 4.8903 8.46168C3.38025 10.166 2.44564 12.3029 2.21923 14.5686C1.99281 16.8344 2.4861 19.1139 3.62902 21.0834C3.81808 21.4109 4.08954 21.6832 4.41642 21.8732C4.74331 22.0633 5.11424 22.1644 5.49236 22.1667H20.4965C20.8783 22.1682 21.2537 22.0689 21.5847 21.8786C21.9158 21.6884 22.1906 21.414 22.3815 21.0834C23.2183 19.6333 23.7075 18.009 23.8109 16.338C23.9143 14.667 23.629 12.9948 22.9774 11.4526C22.8948 11.2768 22.7666 11.1265 22.606 11.0173C22.4455 10.9081 22.2585 10.844 22.0647 10.8318C21.8709 10.8196 21.6774 10.8598 21.5044 10.948C21.3315 11.0363 21.1854 11.1694 21.0815 11.3334Z" fill="#C8FF00"/>
<path d="M11.4724 14.139C11.0658 14.5455 10.8374 15.097 10.8374 15.6719C10.8374 15.9566 10.8935 16.2385 11.0024 16.5015C11.1114 16.7645 11.2711 17.0035 11.4724 17.2048C11.6737 17.4061 11.9126 17.5658 12.1757 17.6748C12.4387 17.7837 12.7206 17.8398 13.0053 17.8398C13.5802 17.8398 14.1316 17.6114 14.5382 17.2048L20.6699 8.00732L11.4724 14.139Z" fill="#C8FF00"/>
</svg>
