<svg width="20" height="20" viewBox="0 0 20 20" fill="none" xmlns="http://www.w3.org/2000/svg">
<path d="M8.31722 1.61992C9.10438 0.39439 10.8956 0.39439 11.6828 1.61992L13.6699 4.71358C13.9407 5.13525 14.36 5.43987 14.8447 5.56715L18.401 6.50097C19.8098 6.8709 20.3633 8.57447 19.441 9.70181L17.1128 12.5476C16.7954 12.9355 16.6353 13.4284 16.664 13.9287L16.8749 17.5995C16.9584 19.0537 15.5092 20.1066 14.1521 19.5778L10.7261 18.2429C10.2591 18.061 9.74087 18.061 9.27391 18.2429L5.84792 19.5778C4.49075 20.1066 3.04161 19.0537 3.12513 17.5995L3.33596 13.9287C3.3647 13.4284 3.20455 12.9355 2.88722 12.5476L0.559002 9.70181C-0.363297 8.57447 0.190228 6.8709 1.59902 6.50097L5.15531 5.56715C5.64003 5.43987 6.05931 5.13525 6.33014 4.71358L8.31722 1.61992Z" fill="black"/>
</svg>
