<svg width="26" height="27" viewBox="0 0 26 27" fill="none" xmlns="http://www.w3.org/2000/svg">
<path d="M24.9168 13.5L22.2735 10.4775L22.6418 6.48L18.731 5.59167L16.6835 2.125L13.0002 3.70667L9.31683 2.125L7.26933 5.58083L3.3585 6.45833L3.72683 10.4667L1.0835 13.5L3.72683 16.5225L3.3585 20.5308L7.26933 21.4192L9.31683 24.875L13.0002 23.2825L16.6835 24.8642L18.731 21.4083L22.6418 20.52L22.2735 16.5225L24.9168 13.5ZM10.1618 17.8442L7.5835 15.2442C7.161 14.8217 7.161 14.1392 7.5835 13.7167L7.65933 13.6408C8.08183 13.2183 8.77516 13.2183 9.19766 13.6408L10.9418 15.3958L16.521 9.80583C16.9435 9.38333 17.6368 9.38333 18.0593 9.80583L18.1352 9.88167C18.5577 10.3042 18.5577 10.9867 18.1352 11.4092L11.7218 17.8442C11.2777 18.2667 10.5952 18.2667 10.1618 17.8442Z" fill="#C8FF00"/>
</svg>
