<svg xmlns="http://www.w3.org/2000/svg" version="1.1" xmlns:xlink="http://www.w3.org/1999/xlink" xmlns:svgjs="http://svgjs.com/svgjs" width="200" height="200"><svg width="200" height="200" viewBox="0 0 200 200" fill="none" xmlns="http://www.w3.org/2000/svg">
<path d="M58.8283 141.691L9.91302 124.314C7.34827 123.399 5.27673 120.336 5.27673 117.456V81.5777C5.27673 78.6978 7.3606 76.8673 9.92535 77.4896L58.8653 89.3269C61.4301 89.9492 63.5139 93.1221 63.5016 96.4048L63.4646 137.384C63.4646 140.666 61.3807 142.594 58.816 141.691H58.8283Z" fill="#C8FF00"></path>
<path d="M125.722 146.499L62.5399 124.045C59.223 122.874 56.5472 118.896 56.5472 115.186V68.8376C56.5472 65.1155 59.2353 62.7481 62.5522 63.5535L125.783 78.8443C129.1 79.6497 131.776 83.7378 131.776 87.9846L131.727 140.935C131.727 145.182 129.039 147.671 125.722 146.499V146.499Z" fill="#C8FF00"></path>
<path d="M188.423 139.837L122.553 116.431C119.1 115.198 116.301 111.061 116.301 107.193V58.8797C116.301 54.999 119.1 52.534 122.553 53.376L188.472 69.3135C191.924 70.1434 194.723 74.4145 194.723 78.8443L194.674 134.04C194.674 138.47 191.863 141.069 188.41 139.837H188.423Z" fill="#C8FF00"></path>
</svg><style>@media (prefers-color-scheme: light) { :root { filter: none; } }
</style></svg>