<svg width="825" height="412" viewBox="0 0 825 412" fill="none" xmlns="http://www.w3.org/2000/svg">
<path d="M233.189 389.529L20.2114 313.049C9.04071 309.047 0 295.504 0 282.836V124.902C0 112.235 9.06437 104.16 20.2351 106.907L233.378 159.023C244.549 161.746 253.589 175.716 253.589 190.183L253.447 370.587C253.447 385.054 244.383 393.555 233.212 389.529H233.189Z" fill="#C8FF00"/>
<path d="M524.527 410.698L249.377 311.865C234.964 306.679 223.272 289.205 223.272 272.843V68.8087C223.272 52.4234 234.964 42.0287 249.401 45.5567L524.763 112.874C539.2 116.402 550.892 134.421 550.868 153.127L550.679 386.214C550.679 404.92 538.964 415.883 524.527 410.698Z" fill="#C8FF00"/>
<path d="M797.547 381.36L510.729 278.337C495.701 272.938 483.512 254.73 483.512 237.658V24.9567C483.512 7.88479 495.701 -2.9598 510.753 0.710312L797.783 70.8924C812.835 74.5625 825.024 93.363 825 112.85L824.811 355.835C824.811 375.323 812.599 386.759 797.57 381.36H797.547Z" fill="#C8FF00"/>
</svg>
