<svg width="103" height="48" viewBox="0 0 103 48" fill="none" xmlns="http://www.w3.org/2000/svg">
<g clip-path="url(#clip0_462_3)">
<path d="M27.4661 45.3838L2.37791 36.471C1.06247 36.0016 0 34.4306 0 32.9535V14.5521C0 13.075 1.06879 12.1362 2.38423 12.4554L27.4851 18.5266C28.8005 18.8458 29.8693 20.4731 29.863 22.1568L29.844 43.1744C29.844 44.858 28.7752 45.847 27.4598 45.3838H27.4661Z" fill="#C8FF00"/>
<path d="M61.775 47.8494L29.3697 36.3329C27.6685 35.7321 26.2961 33.6916 26.2961 31.7889V8.01736C26.2961 6.10838 27.6748 4.89414 29.376 5.30723L61.8067 13.1497C63.5079 13.5628 64.8802 15.6596 64.8802 17.8377L64.8549 44.9953C64.8549 47.1734 63.4763 48.4503 61.775 47.8494Z" fill="#C8FF00"/>
<path d="M93.9337 44.4323L60.1497 32.4276C58.379 31.7954 56.9434 29.6737 56.9434 27.6896V2.91031C56.9434 0.919962 58.379 -0.34435 60.1497 0.0875187L93.959 8.26173C95.7298 8.68734 97.1654 10.878 97.1654 13.15L97.1401 41.4593C97.1401 43.7313 95.6982 45.0645 93.9274 44.4323H93.9337Z" fill="#C8FF00"/>
<path d="M4.00315 28.785H8.49967C8.49967 30.5313 9.86571 31.4889 12.3005 31.4889C14.4002 31.4889 15.5638 30.7628 15.5638 29.7739C15.5638 26.6757 4.36996 28.8851 4.36996 22.9141C4.36996 19.384 7.0704 17.5752 11.9653 17.5752C16.8603 17.5752 19.5607 19.6219 19.5607 23.5462H15.2982C15.0958 21.7311 14.2674 21.0051 11.8325 21.0051C9.53685 21.0051 8.83486 21.8313 8.83486 22.6888C8.83486 25.6555 20.0604 23.1832 20.0604 29.5799C20.0604 32.8095 16.9931 34.9876 12.3954 34.9876C6.79846 34.9876 3.99683 32.941 3.99683 28.7913L4.00315 28.785Z" fill="black"/>
<path d="M21.7554 11.4102H26.3215V34.7185H21.7554V11.4102Z" fill="black"/>
<path d="M33.3792 17.8379H28.7815V34.7183H33.3792V17.8379Z" fill="black"/>
<path d="M35.0173 26.2815C35.0173 21.8 36.8514 17.5752 42.2459 17.5752C45.1424 17.5752 46.6413 18.6643 47.3432 19.6845V11.4102H51.9093V34.7185H49.9804L47.7733 32.7783C46.344 34.4306 44.2001 34.9814 42.3471 34.9814C36.9842 34.9814 35.0173 30.7253 35.0173 26.2752V26.2815ZM43.6499 31.226C46.85 31.226 47.4508 29.2482 47.4508 26.2815C47.4508 23.4774 46.9511 21.3995 43.6878 21.3995C40.4245 21.3995 39.6909 23.3773 39.6909 26.2815C39.6909 29.1856 40.5257 31.226 43.6562 31.226H43.6499Z" fill="black"/>
<path d="M53.7053 26.2814C53.7053 22.0629 55.103 17.5752 62.0027 17.5752C68.4977 17.5752 70.4329 22.7201 69.9333 28.059H58.3726C58.5054 30.4687 60.0359 31.4889 62.0406 31.4889C64.0454 31.4889 64.9371 30.6001 65.1395 29.6112H69.9712C69.674 32.4465 67.7072 34.9876 62.2051 34.9876C55.2105 34.9876 53.7116 30.6377 53.7116 26.2814H53.7053ZM65.2344 24.5978C65.1648 22.4196 64.2035 21.1053 61.7687 21.1053C59.4667 21.1053 58.4675 22.4259 58.3726 24.5978H65.2344Z" fill="black"/>
<path d="M33.3981 17.8193L28.6992 14.9589V11.4038H33.3981V17.8193Z" fill="black"/>
<path d="M99.3662 10.6024C99.3662 9.72617 99.6951 8.90625 101.112 8.90625C102.528 8.90625 102.863 9.72617 102.863 10.6024C102.863 11.4787 102.541 12.2986 101.112 12.2986C99.6824 12.2986 99.3662 11.4849 99.3662 10.6024ZM101.112 11.848C102.098 11.848 102.326 11.2847 102.326 10.6024C102.326 9.9202 102.098 9.3569 101.112 9.3569C100.125 9.3569 99.8974 9.92646 99.8974 10.6024C99.8974 11.2784 100.125 11.848 101.112 11.848ZM100.397 9.75121H101.093C101.795 9.75121 101.877 10.0892 101.877 10.327C101.877 10.4522 101.82 10.7902 101.377 10.7902L101.915 11.4662H101.327L100.89 10.7902V11.4662H100.391V9.74495L100.397 9.75121ZM101.112 10.5023C101.358 10.5023 101.384 10.3959 101.384 10.327C101.384 10.2457 101.352 10.1393 101.112 10.1393H100.897V10.5023H101.112Z" fill="#C8FF00"/>
<path d="M70.9766 26.2815C70.9766 21.8 72.8106 17.5752 78.2051 17.5752C81.1016 17.5752 82.6005 18.6643 83.3025 19.6845V11.4102H87.8686V34.7185H85.9397L83.7325 32.7783C82.3032 34.4306 80.1593 34.9814 78.3063 34.9814C72.9434 34.9814 70.9766 30.7253 70.9766 26.2752V26.2815ZM79.6091 31.226C82.8092 31.226 83.41 29.2482 83.41 26.2815C83.41 23.4774 82.9104 21.3995 79.6471 21.3995C76.3838 21.3995 75.6502 23.3773 75.6502 26.2815C75.6502 29.1856 76.485 31.226 79.6154 31.226H79.6091Z" fill="black"/>
<path d="M95.0279 11.4038H90.4302V28.2842H95.0279V11.4038Z" fill="black"/>
<path d="M90.4111 28.3091L95.11 31.1694V34.7183H90.4111V28.3091Z" fill="black"/>
</g>
<defs>
<clipPath id="clip0_462_3">
<rect width="102.857" height="48" fill="white"/>
</clipPath>
</defs>
</svg>
