<svg width="404" height="131" viewBox="0 0 404 131" fill="none" xmlns="http://www.w3.org/2000/svg">
<path d="M142.95 40.6413C149.15 40.6413 154.849 41.7002 160.047 43.7988C165.245 45.9166 169.731 48.8431 173.486 52.5974C177.24 56.3517 180.166 60.8377 182.284 66.036C184.383 71.2343 185.442 76.9332 185.442 83.1327C185.442 89.3321 184.325 95.0695 182.072 100.326C179.82 105.601 176.701 110.183 172.677 114.072C168.653 117.961 163.878 121.023 158.353 123.256C152.808 125.508 146.685 126.625 139.966 126.625C133.767 126.625 128.106 125.643 122.966 123.66C117.825 121.677 113.378 119.078 109.623 115.843C105.869 112.609 102.866 108.855 100.632 104.58C98.3797 100.306 97.0127 95.7819 96.4736 91.0456H120.193C120.463 92.4896 121.117 94.0491 122.176 95.6856C123.235 97.3414 124.622 98.8431 126.335 100.229C128.049 101.616 130.051 102.732 132.361 103.599C134.672 104.465 137.213 104.889 139.966 104.889C146.416 104.889 151.653 102.886 155.677 98.8624C159.7 94.8385 161.703 89.6017 161.703 83.1519C161.703 76.7022 159.7 71.4653 155.677 67.4415C151.653 63.4176 146.416 61.4153 139.966 61.4153C136.404 61.4153 133.382 62.1084 130.879 63.4946C128.376 64.8808 126.335 66.3633 124.756 67.9421C122.908 69.7903 121.387 71.8889 120.213 74.2763H99.4579L107.371 1.13416H176.547V23.8719H127.124L124.159 46.6097C125.873 45.5508 127.779 44.5689 129.897 43.6448C131.61 42.9902 133.593 42.3356 135.827 41.6617C138.06 41.0071 140.428 40.6798 142.95 40.6798V40.6413Z" fill="black"/>
<path d="M294.587 63.379C294.587 73.2558 293.201 82.1314 290.428 89.9674C287.656 97.8033 283.94 104.426 279.262 109.836C274.583 115.247 269.115 119.386 262.858 122.293C256.601 125.2 250.035 126.644 243.201 126.644C236.366 126.644 229.627 125.2 223.428 122.293C217.228 119.405 211.799 115.247 207.121 109.836C202.442 104.426 198.726 97.8033 195.954 89.9674C193.181 82.1314 191.795 73.2558 191.795 63.379C191.795 53.5022 193.181 44.6266 195.954 36.7906C198.726 28.9546 202.442 22.3316 207.121 16.9215C211.799 11.5114 217.228 7.37203 223.428 4.46483C229.627 1.57688 236.212 0.113647 243.201 0.113647C250.189 0.113647 256.601 1.55763 262.858 4.46483C269.115 7.37203 274.583 11.5114 279.262 16.9215C283.94 22.3316 287.656 28.9546 290.428 36.7906C293.201 44.6266 294.587 53.5022 294.587 63.379ZM215.515 63.379C215.515 70.0983 216.304 75.9704 217.883 80.9762C219.462 85.982 221.541 90.1984 224.102 93.6254C226.662 97.0525 229.647 99.6324 232.997 101.327C236.366 103.04 239.754 103.887 243.181 103.887C246.608 103.887 249.997 103.04 253.366 101.327C256.736 99.6131 259.7 97.0525 262.261 93.6254C264.822 90.1984 266.901 85.982 268.48 80.9762C270.059 75.9704 270.848 70.0983 270.848 63.379C270.848 56.6597 270.059 50.7875 268.48 45.7818C266.901 40.776 264.822 36.5596 262.261 33.1325C259.7 29.7055 256.716 27.1449 253.366 25.4313C249.997 23.7178 246.608 22.8707 243.181 22.8707C239.754 22.8707 236.366 23.7371 232.997 25.4313C229.627 27.1449 226.662 29.7055 224.102 33.1325C221.541 36.5596 219.462 40.776 217.883 45.7818C216.304 50.7875 215.515 56.6597 215.515 63.379V63.379Z" fill="black"/>
<path d="M307.063 126.067C305.658 125.836 304.368 125.431 303.193 124.815C302.019 124.199 300.998 123.429 300.151 122.486C299.304 121.542 298.63 120.445 298.13 119.155C297.629 117.884 297.379 116.498 297.379 114.977H304.021C304.021 116.537 304.541 117.788 305.581 118.77C306.62 119.752 308.045 120.233 309.836 120.233C311.799 120.233 313.243 119.81 314.206 118.982C315.169 118.154 315.65 117.191 315.65 116.074C315.65 114.958 315.207 114.168 314.322 113.591C313.436 112.994 312.319 112.474 310.991 112.012C309.662 111.55 308.218 111.107 306.64 110.664C305.061 110.222 303.617 109.605 302.288 108.835C300.96 108.065 299.843 107.064 298.958 105.813C298.072 104.58 297.629 102.944 297.629 100.903C297.629 99.6516 297.86 98.4772 298.322 97.3798C298.784 96.2824 299.439 95.3197 300.267 94.4533C301.095 93.5869 302.077 92.8746 303.232 92.3162C304.368 91.7579 305.658 91.3729 307.044 91.1611V86.4441H313.147V91.1611C314.322 91.4884 315.419 91.9697 316.439 92.605C317.46 93.2404 318.326 93.9913 319.077 94.8962C319.809 95.801 320.406 96.8407 320.829 98.0151C321.253 99.1896 321.464 100.499 321.464 101.943H315.092C315.092 100.383 314.63 99.1703 313.705 98.2847C312.781 97.399 311.491 96.9562 309.836 96.9562C308.18 96.9562 306.89 97.3605 305.966 98.1692C305.042 98.9778 304.58 99.8634 304.58 100.826C304.58 101.866 305.022 102.655 305.908 103.213C306.794 103.772 307.91 104.272 309.239 104.715C310.567 105.158 312.011 105.62 313.59 106.101C315.149 106.583 316.613 107.218 317.941 108.046C319.27 108.874 320.386 109.913 321.272 111.223C322.158 112.532 322.6 114.245 322.6 116.344C322.6 117.461 322.369 118.539 321.888 119.578C321.407 120.637 320.752 121.6 319.886 122.466C319.039 123.333 318.037 124.084 316.901 124.719C315.766 125.354 314.514 125.797 313.186 126.047V130.764H307.082V126.047L307.063 126.067Z" fill="black"/>
<path d="M334.576 129.109H332.4L337.54 113.071H339.716L334.576 129.109Z" fill="black"/>
<path d="M344.337 116.344C344.799 116.344 345.203 116.402 345.53 116.536C345.858 116.671 346.127 116.806 346.339 116.941C346.57 117.114 346.763 117.306 346.917 117.537C347.128 117.306 347.379 117.114 347.648 116.941C347.879 116.787 348.168 116.652 348.495 116.536C348.823 116.421 349.188 116.344 349.593 116.344C350.575 116.344 351.383 116.671 351.961 117.287C352.539 117.903 352.847 118.866 352.847 120.098V125.547H350.575V120.291C350.575 119.732 350.421 119.309 350.132 118.981C349.843 118.654 349.497 118.5 349.092 118.5C348.688 118.5 348.341 118.654 348.053 118.981C347.764 119.289 347.61 119.732 347.61 120.291V125.547H345.338V120.291C345.338 119.732 345.184 119.309 344.895 118.981C344.606 118.654 344.26 118.5 343.855 118.5C343.451 118.5 343.105 118.654 342.816 118.981C342.527 119.289 342.373 119.732 342.373 120.291V125.547H340.101V116.44H341.795L342.2 117.326C342.392 117.133 342.585 116.979 342.816 116.825C343.008 116.71 343.22 116.594 343.49 116.498C343.759 116.402 344.048 116.344 344.375 116.344H344.337Z" fill="black"/>
<path d="M363.282 121.003C363.282 121.658 363.166 122.254 362.916 122.813C362.665 123.371 362.338 123.872 361.934 124.295C361.51 124.719 361.029 125.046 360.49 125.296C359.931 125.547 359.354 125.662 358.738 125.662C358.122 125.662 357.525 125.547 356.986 125.296C356.447 125.046 355.965 124.719 355.542 124.295C355.118 123.872 354.791 123.39 354.56 122.813C354.31 122.254 354.194 121.658 354.194 121.003C354.194 120.348 354.31 119.752 354.56 119.193C354.81 118.635 355.138 118.134 355.542 117.711C355.965 117.287 356.447 116.96 356.986 116.71C357.544 116.459 358.122 116.344 358.738 116.344C359.354 116.344 359.931 116.459 360.49 116.71C361.029 116.96 361.51 117.287 361.934 117.711C362.357 118.134 362.685 118.616 362.916 119.193C363.166 119.752 363.282 120.348 363.282 121.003ZM356.447 121.003C356.447 121.754 356.658 122.351 357.101 122.813C357.544 123.275 358.083 123.487 358.719 123.487C359.354 123.487 359.912 123.256 360.336 122.813C360.779 122.37 360.99 121.773 360.99 121.003C360.99 120.233 360.779 119.655 360.336 119.193C359.893 118.75 359.354 118.519 358.719 118.519C358.083 118.519 357.525 118.75 357.101 119.193C356.678 119.636 356.447 120.233 356.447 121.003Z" fill="black"/>
<path d="M369.366 116.344C369.905 116.344 370.405 116.44 370.848 116.613C371.291 116.787 371.676 117.056 372.003 117.383C372.331 117.711 372.581 118.134 372.754 118.596C372.928 119.058 373.024 119.598 373.024 120.194V125.547H370.752V120.502C370.752 119.906 370.579 119.424 370.232 119.058C369.886 118.693 369.424 118.519 368.865 118.519C368.307 118.519 367.864 118.693 367.518 119.058C367.171 119.424 366.998 119.906 366.998 120.502V125.547H364.726V116.44H366.42L366.824 117.326C367.055 117.133 367.286 116.979 367.556 116.825C367.787 116.71 368.057 116.594 368.365 116.498C368.673 116.402 369.019 116.344 369.404 116.344H369.366Z" fill="black"/>
<path d="M375.642 114.265H377.625V116.44H379.608V118.52H377.625V122.274C377.625 122.678 377.741 122.986 377.972 123.217C378.203 123.448 378.511 123.564 378.915 123.564C379.011 123.564 379.108 123.564 379.165 123.564C379.223 123.564 379.281 123.564 379.339 123.545C379.396 123.545 379.435 123.506 379.493 123.487V125.47C379.493 125.47 379.3 125.547 379.165 125.566C378.934 125.624 378.684 125.662 378.395 125.662C377.952 125.662 377.529 125.585 377.163 125.431C376.778 125.277 376.47 125.066 376.2 124.777C375.931 124.488 375.719 124.141 375.565 123.737C375.411 123.333 375.334 122.89 375.334 122.389V118.52H373.948V116.633H374.545C375.276 116.633 375.642 116.267 375.642 115.535V114.245V114.265Z" fill="black"/>
<path d="M386 116.344C386.481 116.344 386.943 116.44 387.367 116.613C387.791 116.787 388.156 117.056 388.464 117.383C388.772 117.711 389.003 118.134 389.196 118.596C389.388 119.058 389.466 119.598 389.466 120.194V125.547H387.194V120.502C387.194 119.906 387.02 119.424 386.674 119.058C386.327 118.693 385.865 118.519 385.307 118.519C384.749 118.519 384.306 118.693 383.959 119.058C383.613 119.424 383.439 119.906 383.439 120.502V125.547H381.167V113.071H383.439V117.326C383.613 117.133 383.824 116.979 384.055 116.825C384.267 116.71 384.537 116.594 384.864 116.498C385.191 116.402 385.576 116.344 386.019 116.344H386Z" fill="black"/>
<path d="M393.624 125.547H391.353V113.071H393.624V125.547Z" fill="black"/>
<path d="M394.529 116.44H396.897L399.169 122.389L401.249 116.44H403.617C402.962 118.096 402.384 119.617 401.845 120.945C401.614 121.523 401.403 122.1 401.191 122.639C400.979 123.198 400.787 123.698 400.613 124.16C400.44 124.622 400.286 124.988 400.17 125.296C400.055 125.604 399.978 125.778 399.959 125.835C399.728 126.374 399.516 126.837 399.304 127.202C399.092 127.587 398.861 127.876 398.592 128.126C398.341 128.358 398.072 128.531 397.783 128.646C397.494 128.743 397.167 128.8 396.801 128.8C396.705 128.8 396.589 128.8 396.493 128.8C396.397 128.8 396.32 128.8 396.243 128.762C396.147 128.762 396.069 128.723 396.012 128.704V126.817C396.512 126.817 396.897 126.702 397.167 126.49C397.436 126.259 397.648 125.989 397.783 125.643L397.976 125.142L394.51 116.421L394.529 116.44Z" fill="black"/>
<path d="M2.84648 59.3165C2.90424 59.6245 3.03901 59.8748 3.2893 60.0866C3.52034 60.2984 3.84764 60.3947 4.2327 60.3947C4.61776 60.3947 4.94506 60.2984 5.1761 60.0866C5.40714 59.8748 5.52265 59.663 5.52265 59.3935C5.52265 59.1817 5.40714 59.0084 5.1761 58.8929C4.94506 58.7774 4.65627 58.6619 4.30971 58.5656C3.96316 58.4694 3.59735 58.3731 3.19304 58.2576C2.78872 58.1421 2.42292 57.988 2.07637 57.7955C1.72981 57.5837 1.44102 57.3334 1.20998 57.0061C0.978944 56.6788 0.863425 56.2553 0.863425 55.7354C0.863425 55.3696 0.940435 55.0038 1.09446 54.6765C1.24848 54.3492 1.46027 54.0412 1.74906 53.7909C2.03786 53.5406 2.38441 53.3288 2.78872 53.194C3.19304 53.04 3.63586 52.963 4.13644 52.963C5.23386 52.963 6.08098 53.2325 6.65857 53.7524C7.25542 54.2722 7.60197 54.9461 7.69824 55.7354H5.52265C5.46489 55.5429 5.33012 55.3311 5.09909 55.1386C4.86805 54.9461 4.57925 54.8498 4.2327 54.8498C3.88615 54.8498 3.61661 54.9268 3.42408 55.1001C3.23155 55.2734 3.13528 55.4851 3.13528 55.7354C3.13528 55.9472 3.2508 56.1205 3.48183 56.236C3.71287 56.3515 4.00167 56.467 4.34822 56.5633C4.69477 56.6596 5.06058 56.7751 5.46489 56.8714C5.8692 56.9869 6.23501 57.1409 6.58157 57.3527C6.92812 57.5645 7.21692 57.834 7.44795 58.1806C7.67899 58.5079 7.7945 58.9507 7.7945 59.4898C7.7945 59.8556 7.71749 60.2214 7.56347 60.5487C7.40944 60.876 7.17841 61.184 6.88961 61.4343C6.60082 61.6846 6.25427 61.8964 5.8307 62.0312C5.40714 62.1852 4.94506 62.2622 4.42523 62.2622C3.23154 62.2622 2.34591 61.9927 1.72981 61.4536C1.11372 60.9145 0.767163 60.1829 0.670898 59.2972H2.84648V59.3165Z" fill="black"/>
<path d="M12.839 62.2815C12.2999 62.2815 11.7993 62.1853 11.3565 62.012C10.9137 61.8387 10.5286 61.5692 10.2013 61.2419C9.87402 60.9146 9.62373 60.491 9.45046 60.0289C9.27718 59.5476 9.18091 59.0278 9.18091 58.4309V53.0786H11.4528V58.1229C11.4528 58.7197 11.626 59.2011 11.9726 59.5669C12.3191 59.9327 12.7812 60.106 13.3203 60.106C13.8594 60.106 14.3215 59.9327 14.6873 59.5669C15.0338 59.2011 15.2071 58.7197 15.2071 58.1229V53.0786H17.479V62.1853H15.8039L15.3996 61.2996C15.1686 61.4922 14.9376 61.6462 14.668 61.8002C14.437 61.935 14.1674 62.0505 13.8594 62.1468C13.5321 62.243 13.2048 62.3008 12.8197 62.3008L12.839 62.2815Z" fill="black"/>
<path d="M24.0825 62.2815C23.6782 62.2815 23.3317 62.2238 23.0044 62.1275C22.6771 62.0312 22.4075 61.9157 22.1957 61.7809C21.9262 61.6269 21.6952 61.4729 21.5026 61.2804L21.0983 62.166H19.4041V49.6901H21.6759V53.8487C21.8684 53.6947 22.0802 53.5407 22.3113 53.4059C22.523 53.3096 22.7733 53.1941 23.0621 53.0979C23.3509 53.0016 23.6782 52.9438 24.0633 52.9438C24.6216 52.9438 25.18 53.0593 25.6805 53.2904C26.2004 53.5214 26.6432 53.8487 27.0475 54.253C27.4326 54.6766 27.7406 55.1579 27.9716 55.7355C28.2027 56.3131 28.3182 56.9292 28.3182 57.603C28.3182 58.2769 28.2027 58.893 27.9716 59.4706C27.7406 60.0482 27.4326 60.5295 27.0475 60.9531C26.6624 61.3766 26.2004 61.6847 25.6805 61.9157C25.1607 62.1467 24.6216 62.2623 24.0633 62.2623L24.0825 62.2815ZM21.5026 57.6223C21.5026 58.3732 21.7144 58.97 22.1572 59.4321C22.6001 59.8942 23.1391 60.1059 23.7745 60.1059C24.4098 60.1059 24.9682 59.8749 25.3917 59.4321C25.8346 58.9893 26.0463 58.3924 26.0463 57.6223C26.0463 56.8522 25.8346 56.2746 25.3917 55.8125C24.9489 55.3697 24.4098 55.1387 23.7745 55.1387C23.1391 55.1387 22.5808 55.3697 22.1572 55.8125C21.7337 56.2553 21.5026 56.8522 21.5026 57.6223Z" fill="black"/>
<path d="M31.3795 59.3165C31.4372 59.6245 31.572 59.8748 31.8223 60.0866C32.0533 60.2984 32.3806 60.3947 32.7657 60.3947C33.1507 60.3947 33.478 60.2984 33.7091 60.0866C33.9401 59.8748 34.0556 59.663 34.0556 59.3935C34.0556 59.1817 33.9401 59.0084 33.7091 58.8929C33.478 58.7774 33.1892 58.6619 32.8427 58.5656C32.4961 58.4694 32.1303 58.3731 31.726 58.2576C31.3217 58.1421 30.9559 57.988 30.6093 57.7955C30.2628 57.5837 29.974 57.3334 29.743 57.0061C29.5119 56.6788 29.3964 56.2553 29.3964 55.7354C29.3964 55.3696 29.4734 55.0038 29.6274 54.6765C29.7814 54.3492 29.9932 54.0412 30.282 53.7909C30.5708 53.5406 30.9174 53.3288 31.3217 53.194C31.726 53.04 32.1688 52.963 32.6694 52.963C33.7668 52.963 34.6139 53.2325 35.1915 53.7524C35.7884 54.2722 36.1349 54.9461 36.2312 55.7354H34.0556C33.9979 55.5429 33.8631 55.3311 33.6321 55.1386C33.401 54.9461 33.1122 54.8498 32.7657 54.8498C32.4191 54.8498 32.1496 54.9268 31.957 55.1001C31.7645 55.2734 31.6683 55.4851 31.6683 55.7354C31.6683 55.9472 31.7838 56.1205 32.0148 56.236C32.2458 56.3515 32.5346 56.467 32.8812 56.5633C33.2277 56.6596 33.5936 56.7751 33.9979 56.8714C34.4022 56.9869 34.768 57.1409 35.1145 57.3527C35.4611 57.5645 35.7499 57.834 35.9809 58.1806C36.212 58.5079 36.3275 58.9507 36.3275 59.4898C36.3275 59.8556 36.2505 60.2214 36.0964 60.5487C35.9424 60.876 35.7114 61.184 35.4226 61.4343C35.1338 61.6846 34.7872 61.8964 34.3637 62.0312C33.9401 62.1852 33.478 62.2622 32.9582 62.2622C31.7645 62.2622 30.8789 61.9927 30.2628 61.4536C29.6467 60.9145 29.3001 60.1829 29.2039 59.2972H31.3795V59.3165Z" fill="black"/>
<path d="M46.0118 58.8159C45.9155 59.2587 45.723 59.7016 45.4727 60.1059C45.2224 60.5294 44.9143 60.8952 44.5485 61.2225C44.1827 61.5498 43.7592 61.8001 43.2778 61.9927C42.7965 62.1852 42.2959 62.2815 41.7568 62.2815C41.1407 62.2815 40.5439 62.1659 40.0048 61.9156C39.4657 61.6654 38.9844 61.3381 38.5608 60.9145C38.1373 60.4909 37.81 60.0096 37.5789 59.432C37.3287 58.8737 37.2131 58.2768 37.2131 57.6222C37.2131 56.9676 37.3287 56.3708 37.5789 55.8124C37.8292 55.2541 38.1565 54.7535 38.5608 54.33C38.9844 53.9064 39.4657 53.5791 40.0048 53.3288C40.5632 53.0785 41.1407 52.963 41.7568 52.963C42.2959 52.963 42.7965 53.0593 43.2778 53.2518C43.7592 53.4443 44.1827 53.6946 44.5485 54.0219C44.9143 54.3492 45.2224 54.715 45.4727 55.1386C45.723 55.5622 45.8962 55.9857 46.0118 56.4285H43.7399C43.6436 56.1975 43.4896 55.9857 43.2971 55.7932C43.143 55.6392 42.9313 55.4852 42.681 55.3504C42.4307 55.2156 42.1226 55.1386 41.7568 55.1386C41.1022 55.1386 40.5631 55.3696 40.1396 55.8124C39.716 56.2553 39.485 56.8521 39.485 57.6222C39.485 58.3924 39.6968 58.9699 40.1396 59.432C40.5824 59.8941 41.1215 60.1059 41.7568 60.1059C42.1226 60.1059 42.4307 60.0481 42.681 59.9133C42.9313 59.7786 43.143 59.6438 43.2971 59.4705C43.4896 59.278 43.6244 59.0662 43.7399 58.8159H46.0118V58.8159Z" fill="black"/>
<path d="M51.595 52.963C51.6913 52.963 51.7875 52.963 51.8645 52.9822C51.9416 52.9822 52.0186 53.0015 52.0763 53.0207L52.2688 53.0592V55.4274C52.2688 55.4274 52.1341 55.4081 52.0571 55.3888C51.9801 55.3888 51.903 55.3696 51.8068 55.3503C51.7105 55.3311 51.595 55.3311 51.4795 55.3311C50.9211 55.3311 50.4783 55.5044 50.1318 55.8702C49.7852 56.236 49.6119 56.7173 49.6119 57.3141V62.1659H47.3401V53.0592H49.0343L49.4387 54.0411C49.5927 53.8486 49.7852 53.6561 50.0163 53.5021C50.2088 53.348 50.4206 53.2325 50.6901 53.117C50.9596 53.0015 51.2677 52.9437 51.6142 52.9437L51.595 52.963Z" fill="black"/>
<path d="M54.5409 51.8849C54.1944 51.8849 53.9056 51.7502 53.636 51.4999C53.3857 51.2496 53.251 50.9416 53.251 50.595C53.251 50.2484 53.3857 49.9596 53.636 49.6901C53.8863 49.4206 54.1944 49.3051 54.5409 49.3051C54.8875 49.3051 55.1763 49.4398 55.4458 49.6901C55.6961 49.9404 55.8309 50.2484 55.8309 50.595C55.8309 50.9416 55.6961 51.2304 55.4458 51.4999C55.1955 51.7694 54.8875 51.8849 54.5409 51.8849ZM55.6383 62.1853H53.3665V53.0786H55.6383V62.1853Z" fill="black"/>
<path d="M62.2229 62.2815C61.8186 62.2815 61.472 62.2238 61.1447 62.1275C60.8174 62.0312 60.5479 61.9157 60.3361 61.7809C60.0666 61.6269 59.8355 61.4729 59.643 61.2804L59.2387 62.166H57.5444V49.6901H59.8163V53.8487C60.0088 53.6947 60.2206 53.5407 60.4516 53.4059C60.6634 53.3096 60.9137 53.1941 61.2025 53.0979C61.4913 53.0016 61.8186 52.9438 62.2037 52.9438C62.762 52.9438 63.3203 53.0593 63.8209 53.2904C64.3407 53.5214 64.7836 53.8487 65.1879 54.253C65.5729 54.6766 65.881 55.1579 66.112 55.7355C66.3431 56.3131 66.4586 56.9292 66.4586 57.603C66.4586 58.2769 66.3431 58.893 66.112 59.4706C65.881 60.0482 65.5729 60.5295 65.1879 60.9531C64.8028 61.3766 64.3407 61.6847 63.8209 61.9157C63.3011 62.1467 62.762 62.2623 62.2037 62.2623L62.2229 62.2815ZM59.643 57.6223C59.643 58.3732 59.8548 58.97 60.2976 59.4321C60.7404 59.8942 61.2795 60.1059 61.9149 60.1059C62.5502 60.1059 63.1086 59.8749 63.5321 59.4321C63.9749 58.9893 64.1867 58.3924 64.1867 57.6223C64.1867 56.8522 63.9749 56.2746 63.5321 55.8125C63.0893 55.3697 62.5502 55.1387 61.9149 55.1387C61.2795 55.1387 60.7212 55.3697 60.2976 55.8125C59.874 56.2553 59.643 56.8522 59.643 57.6223Z" fill="black"/>
<path d="M76.0079 59.4128C75.8924 59.7593 75.6999 60.1059 75.4689 60.4524C75.2186 60.799 74.9298 61.107 74.5832 61.3766C74.2367 61.6461 73.8324 61.8771 73.3895 62.0312C72.9467 62.1852 72.4654 62.2815 71.9456 62.2815C71.3295 62.2815 70.7326 62.1659 70.1935 61.9156C69.6545 61.6654 69.1731 61.3381 68.7496 60.9145C68.326 60.4909 67.9987 60.0096 67.7677 59.432C67.5174 58.8737 67.4019 58.2768 67.4019 57.6222C67.4019 56.9676 67.5174 56.3708 67.7677 55.8124C68.018 55.2541 68.3452 54.7535 68.7496 54.33C69.1731 53.9064 69.6545 53.5791 70.1935 53.3288C70.7519 53.0785 71.3295 52.963 71.9456 52.963C72.5617 52.963 73.1007 53.0785 73.6206 53.2903C74.1404 53.5213 74.6025 53.8294 75.0068 54.2337C75.4111 54.638 75.7192 55.1386 75.9502 55.7162C76.1812 56.2938 76.2967 56.9099 76.2967 57.603C76.2967 57.7185 76.2967 57.8148 76.2775 57.911C76.2775 58.0073 76.2582 58.1035 76.239 58.1998C76.239 58.3153 76.2197 58.4116 76.2005 58.4886H69.8662C69.9625 58.9314 70.1935 59.3165 70.5401 59.6245C70.8866 59.9326 71.3487 60.0866 71.9456 60.0866C72.2536 60.0866 72.5039 60.0481 72.7157 59.9903C72.9275 59.9326 73.1007 59.8363 73.2355 59.7593C73.3895 59.6631 73.5243 59.5283 73.6398 59.3935H76.0079V59.4128ZM71.9456 55.1579C71.3487 55.1579 70.8674 55.3311 70.4823 55.6777C70.0973 56.0242 69.8662 56.4478 69.7507 56.9484H74.1019C74.0056 56.4478 73.7553 56.0242 73.3703 55.6777C72.9852 55.3311 72.5039 55.1579 71.907 55.1579H71.9456Z" fill="black"/>
</svg>
