<svg width="516" height="168" viewBox="0 0 516 168" fill="none" xmlns="http://www.w3.org/2000/svg">
<path d="M230.811 96.8293C230.811 90.6101 229.739 85.0344 227.81 80.1019C225.881 75.384 223.523 71.5238 220.522 68.7359C217.521 65.948 213.877 63.589 209.804 61.8734C205.517 60.1578 201.659 58.8711 197.801 58.2277C193.943 57.5844 189.87 57.1555 185.797 57.1555L226.095 35.7101V2.68437H130.709V27.9898H194.371L147.857 55.0109V77.5285H175.08C192.228 77.5285 201.016 83.9621 201.016 96.8293C201.016 102.405 199.087 107.337 195.657 111.198C192.228 115.058 186.869 116.988 180.01 116.988C171.65 116.988 165.434 115.058 161.147 110.769C156.86 106.694 154.717 100.904 154.717 93.398H125.779C125.779 108.195 130.066 119.99 138.64 128.568C147.214 137.361 160.718 141.65 178.938 141.65C196.3 141.65 209.376 137.575 217.95 128.997C226.524 120.419 230.811 109.696 230.811 96.8293Z" fill="black"/>
<path d="M364.433 71.5238C364.433 60.5867 363.575 51.1508 361.861 43.0016C360.146 35.0668 357.145 27.7754 353.072 21.1273C348.785 14.4793 342.784 9.54687 335.067 6.11562C327.35 2.68437 317.705 0.96875 306.344 0.96875C297.127 0.96875 289.196 2.25547 282.337 4.39999C275.478 6.75897 270.119 9.97578 265.832 13.8359C261.545 17.9105 257.901 23.0574 255.329 29.0621C252.757 35.0668 250.827 41.5004 249.97 48.1484C248.898 55.0109 248.47 62.7312 248.47 71.3094C248.47 82.4609 249.327 91.8969 251.042 99.8316C252.757 107.981 255.543 115.272 259.616 121.706C263.688 128.354 269.69 133.286 277.407 136.718C285.123 140.149 294.769 141.65 306.344 141.65C317.705 141.65 327.35 140.149 335.067 136.718C342.784 133.286 348.785 128.354 353.072 121.706C357.145 115.272 360.146 107.981 361.861 99.8316C363.575 91.8969 364.433 82.4609 364.433 71.5238ZM333.995 71.5238C333.995 87.1789 332.066 98.5449 328.636 105.622C324.992 112.913 317.49 116.345 306.344 116.345C295.198 116.345 287.91 112.699 284.48 105.407C280.836 98.116 279.122 86.75 279.122 71.3094C279.122 55.8687 280.836 44.5027 284.48 37.2113C287.91 29.9199 295.198 26.2742 306.344 26.2742C317.49 26.2742 324.992 29.9199 328.636 37.2113C332.066 44.5027 333.995 55.8687 333.995 71.5238Z" fill="black"/>
<path d="M404.955 137.028C404.955 134.644 404.138 132.669 402.64 131.102C401.074 129.603 399.167 128.513 396.989 127.9C394.742 127.355 392.495 126.878 390.316 126.538C388.069 126.197 386.162 125.788 384.528 125.311C382.894 124.903 382.077 124.221 382.009 123.404C381.941 122.45 382.417 121.565 383.371 120.815C384.324 120.134 385.89 119.725 388.137 119.725C390.588 119.725 392.358 120.202 393.38 121.088C394.401 122.042 395.014 123.404 395.218 125.311H404.41C404.41 118.227 400.665 114.071 393.244 112.777V104.262H384.869V112.573C380.715 113.118 377.651 114.344 375.609 116.387C373.566 118.431 372.613 120.884 372.749 123.813C372.749 125.788 373.362 127.423 374.587 128.786C375.745 130.148 377.175 131.102 378.945 131.647C380.647 132.192 382.486 132.737 384.528 133.145C386.571 133.554 388.409 133.895 390.112 134.167C391.746 134.44 393.176 134.849 394.265 135.394C395.354 135.938 395.831 136.688 395.763 137.642C395.627 138.459 395.014 139.208 393.925 139.821C392.835 140.435 391.269 140.707 389.09 140.707C383.915 140.707 381.328 138.731 381.328 134.712H372.136C372 142.546 376.289 146.974 384.869 147.928V156.511H393.244V147.928C397.125 147.383 400.053 146.021 402.027 143.977C403.934 141.933 404.955 139.617 404.955 137.028Z" fill="black"/>
<path d="M425.432 146.406H422.145L416.689 161.999H420.001L425.432 146.406Z" fill="black"/>
<path d="M444.339 161.999V154.568C444.339 153.813 444.266 153.155 444.169 152.57C444.047 151.985 443.852 151.449 443.56 150.938C443.268 150.426 442.829 150.036 442.269 149.744C441.685 149.476 441.003 149.33 440.199 149.33C438.397 149.33 437.18 149.963 436.498 151.181C435.816 149.963 434.671 149.33 433.04 149.33C431.067 149.33 429.703 150.085 428.973 151.571L428.218 149.525H426.781V161.999H430.117V154.398C430.117 152.911 430.75 152.156 432.041 152.156C432.747 152.156 433.234 152.351 433.478 152.741C433.721 153.131 433.868 153.667 433.868 154.349V161.999H437.253V154.349C437.253 153.667 437.374 153.131 437.642 152.741C437.91 152.351 438.397 152.156 439.128 152.156C439.834 152.156 440.321 152.351 440.565 152.741C440.808 153.131 440.954 153.667 440.954 154.349V161.999H444.339Z" fill="black"/>
<path d="M458.545 155.738C458.545 154.86 458.423 154.081 458.228 153.35C458.033 152.619 457.692 151.961 457.254 151.328C456.791 150.694 456.134 150.207 455.306 149.866C454.478 149.525 453.479 149.33 452.335 149.33C451.166 149.33 450.143 149.525 449.315 149.866C448.487 150.207 447.829 150.694 447.391 151.328C446.953 151.961 446.612 152.619 446.417 153.35C446.222 154.081 446.125 154.86 446.125 155.738C446.125 156.639 446.222 157.443 446.417 158.174C446.612 158.905 446.928 159.563 447.367 160.196C447.805 160.83 448.463 161.342 449.291 161.683C450.119 162.024 451.117 162.194 452.286 162.194C453.455 162.194 454.454 162.024 455.282 161.683C456.11 161.342 456.767 160.854 457.23 160.221C457.692 159.587 458.033 158.905 458.228 158.174C458.423 157.443 458.545 156.639 458.545 155.738ZM455.257 155.738C455.257 158.15 454.259 159.344 452.286 159.344C450.362 159.344 449.412 158.15 449.412 155.738C449.412 153.35 450.387 152.156 452.335 152.156C454.283 152.156 455.257 153.35 455.257 155.738Z" fill="black"/>
<path d="M472.241 161.999V155.202C472.241 153.277 471.9 151.815 471.218 150.816C470.536 149.841 469.27 149.33 467.443 149.33C466.177 149.33 465.178 149.525 464.496 149.866C463.79 150.231 463.206 150.767 462.743 151.474L461.964 149.525H460.575V161.999H463.912V155.007C463.912 154.032 464.082 153.325 464.448 152.838C464.789 152.375 465.47 152.132 466.469 152.132C467.443 152.132 468.076 152.375 468.417 152.814C468.734 153.252 468.904 153.959 468.904 154.934V161.999H472.241Z" fill="black"/>
<path d="M481.917 162.121V159.392C480.724 159.49 479.896 159.417 479.457 159.197C479.019 158.978 478.8 158.515 478.8 157.833V152.253H481.917V149.525H478.702V146.406H475.39V149.573L473.564 150.597V152.253H475.39V157.857C475.39 159.709 475.877 160.952 476.9 161.536C477.923 162.121 479.579 162.316 481.917 162.121Z" fill="black"/>
<path d="M495.381 161.999V155.275C495.381 153.325 495.04 151.864 494.358 150.84C493.676 149.841 492.41 149.33 490.583 149.33C489.634 149.33 488.854 149.5 488.245 149.817C487.637 150.158 487.223 150.524 487.028 150.913V144.773H483.716V161.999H487.028L487.052 154.958C487.052 153.959 487.223 153.252 487.563 152.814C487.904 152.375 488.586 152.156 489.609 152.156C490.583 152.156 491.216 152.375 491.557 152.814C491.874 153.252 492.044 153.959 492.044 154.958V161.999H495.381Z" fill="black"/>
<path d="M501.107 161.999V144.773H497.771V161.999H501.107Z" fill="black"/>
<path d="M515.283 149.525H511.946V156.615C511.946 157.589 511.751 158.32 511.411 158.759C511.045 159.197 510.388 159.417 509.414 159.417C508.415 159.417 507.758 159.222 507.441 158.808C507.1 158.418 506.954 157.736 506.954 156.785V149.525H503.642V156.493C503.642 158.418 503.958 159.855 504.64 160.781C505.322 161.731 506.589 162.194 508.439 162.194C510.022 162.194 511.191 161.707 511.946 160.684V162.462C511.946 163.144 511.776 163.656 511.435 163.997C511.094 164.338 510.412 164.509 509.414 164.509C508.853 164.509 508.391 164.485 508.05 164.387C507.709 164.314 507.441 164.192 507.295 164.022C507.124 163.851 507.027 163.681 506.978 163.51C506.93 163.364 506.881 163.12 506.856 162.828H503.52C503.52 164.192 503.934 165.24 504.811 165.971C505.663 166.702 507.197 167.067 509.389 167.067C510.583 167.067 511.581 166.945 512.409 166.677C513.213 166.409 513.821 166.02 514.211 165.532C514.601 165.045 514.893 164.533 515.039 163.997C515.185 163.486 515.283 162.876 515.283 162.194V149.525Z" fill="black"/>
<path d="M12.621 74.6867C12.621 73.9558 12.4018 73.3223 12.0122 72.8106C11.5982 72.299 11.0868 71.9335 10.4779 71.6899C9.86911 71.4462 9.21158 71.2513 8.50533 71.0807C7.79909 70.9102 7.14156 70.7884 6.53273 70.7153C5.92391 70.6422 5.41249 70.5204 5.02284 70.3498C4.60884 70.1792 4.41401 69.96 4.41401 69.6676C4.41401 69.3265 4.58448 69.0097 4.92543 68.7417C5.26637 68.4981 5.82649 68.3519 6.60579 68.3519C7.48251 68.3519 8.11569 68.5224 8.48098 68.8635C8.84628 69.2047 9.06546 69.7407 9.13852 70.4229H12.2557C12.2557 67.3529 10.4049 65.8179 6.70321 65.8179C4.77931 65.8179 3.36683 66.2078 2.46576 66.9387C1.54035 67.694 1.10199 68.6686 1.10199 69.8869C1.10199 70.7153 1.39423 71.3731 1.9787 71.8848C2.56318 72.4208 3.24506 72.7863 4.04872 72.9812C4.85237 73.1761 5.65602 73.3467 6.45967 73.4685C7.23897 73.6147 7.92086 73.7852 8.48098 73.9802C9.0411 74.1751 9.33334 74.4675 9.33334 74.8329C9.33334 75.1497 9.13852 75.442 8.74887 75.7101C8.35922 75.9781 7.75039 76.0999 6.94674 76.0999C5.99696 76.0999 5.29073 75.905 4.85237 75.4908C4.38966 75.1009 4.17048 74.5406 4.17048 73.8583H0.882812C0.882812 75.4664 1.36987 76.6847 2.36835 77.4887C3.34248 78.2927 4.90107 78.6826 7.0198 78.6826C8.87063 78.6826 10.2831 78.2927 11.2085 77.5131C12.1339 76.7334 12.621 75.7832 12.621 74.6867Z" fill="black"/>
<path d="M25.9941 78.4877V66.0129H22.6577V73.0299C22.6577 74.0045 22.4629 74.7355 22.0976 75.1984C21.7323 75.6613 21.0504 75.8806 20.0763 75.8806C19.1022 75.8806 18.4446 75.6613 18.128 75.1984C17.8115 74.7598 17.6653 74.0289 17.6653 73.0299V66.0129H14.3533V72.7619C14.3533 73.7121 14.402 74.5162 14.5481 75.174C14.6699 75.8563 14.8891 76.4654 15.23 77.0258C15.571 77.5862 16.058 78.0004 16.6912 78.2684C17.3244 78.5607 18.128 78.6826 19.1022 78.6826C20.3685 78.6826 21.367 78.512 22.0732 78.1709C22.7795 77.8298 23.364 77.2938 23.851 76.5628L24.606 78.4877H25.9941Z" fill="black"/>
<path d="M41.0236 72.2503C41.0236 70.3985 40.5852 68.8635 39.7572 67.6453C38.9049 66.4271 37.5654 65.8179 35.739 65.8179C33.9612 65.8179 32.7192 66.354 31.9886 67.3773V61.2617H28.6766V78.4877H30.1134L30.844 76.4897C31.745 77.9516 33.3524 78.6826 35.6415 78.6826C36.8836 78.6826 37.9307 78.3658 38.7587 77.7323C39.5867 77.0989 40.1712 76.3192 40.5122 75.3933C40.8531 74.4675 41.0236 73.4198 41.0236 72.2503ZM37.6141 72.2503C37.6141 73.4441 37.395 74.3456 36.981 74.9791C36.5426 75.6126 35.812 75.905 34.7405 75.905C33.6202 75.905 32.8896 75.6126 32.5243 75.0035C32.1347 74.4187 31.9642 73.4929 31.9642 72.2503C31.9642 71.6655 31.9886 71.1782 32.0616 70.7884C32.1103 70.3985 32.2321 70.0331 32.4269 69.6676C32.5974 69.3265 32.8653 69.0585 33.2549 68.8879C33.6202 68.7174 34.1073 68.6199 34.6918 68.6199C35.7633 68.6199 36.5183 68.9366 36.9566 69.5701C37.395 70.2036 37.6141 71.0807 37.6141 72.2503Z" fill="black"/>
<path d="M54.1925 74.6867C54.1925 73.9558 53.9733 73.3223 53.5837 72.8106C53.1697 72.299 52.6583 71.9335 52.0495 71.6899C51.4406 71.4462 50.7831 71.2513 50.0768 71.0807C49.3706 70.9102 48.7131 70.7884 48.1042 70.7153C47.4954 70.6422 46.984 70.5204 46.5944 70.3498C46.1804 70.1792 45.9855 69.96 45.9855 69.6676C45.9855 69.3265 46.156 69.0097 46.4969 68.7417C46.8379 68.4981 47.398 68.3519 48.1773 68.3519C49.054 68.3519 49.6872 68.5224 50.0525 68.8635C50.4178 69.2047 50.637 69.7407 50.71 70.4229H53.8272C53.8272 67.3529 51.9764 65.8179 48.2747 65.8179C46.3508 65.8179 44.9383 66.2078 44.0373 66.9387C43.1119 67.694 42.6735 68.6686 42.6735 69.8869C42.6735 70.7153 42.9657 71.3731 43.5502 71.8848C44.1347 72.4208 44.8166 72.7863 45.6202 72.9812C46.4239 73.1761 47.2275 73.3467 48.0312 73.4685C48.8105 73.6147 49.4924 73.7852 50.0525 73.9802C50.6126 74.1751 50.9049 74.4675 50.9049 74.8329C50.9049 75.1497 50.71 75.442 50.3204 75.7101C49.9307 75.9781 49.3219 76.0999 48.5183 76.0999C47.5685 76.0999 46.8622 75.905 46.4239 75.4908C45.9612 75.1009 45.742 74.5406 45.742 73.8583H42.4543C42.4543 75.4664 42.9414 76.6847 43.9399 77.4887C44.914 78.2927 46.4726 78.6826 48.5913 78.6826C50.4421 78.6826 51.8546 78.2927 52.78 77.5131C53.7055 76.7334 54.1925 75.7832 54.1925 74.6867Z" fill="black"/>
<path d="M67.663 73.6147L64.2292 73.5903C64.1318 74.3213 63.8883 74.8817 63.523 75.2715C63.1333 75.6613 62.5732 75.8319 61.7939 75.8319C59.8213 75.8319 58.8472 74.638 58.8472 72.2259C58.8472 69.8138 59.8213 68.5955 61.7939 68.5955C62.5732 68.5955 63.1333 68.7905 63.523 69.1803C63.8883 69.5701 64.1318 70.1792 64.2292 70.9833H67.663C67.663 69.3996 67.1516 68.1326 66.1775 67.2067C65.2034 66.2809 63.7422 65.8179 61.8426 65.8179C60.6493 65.8179 59.6265 66.0129 58.7741 66.354C57.9218 66.6951 57.2642 67.1824 56.8259 67.8159C56.3875 68.4493 56.0466 69.1072 55.8518 69.8381C55.6569 70.5691 55.5595 71.3975 55.5595 72.2746C55.5595 76.5628 57.6783 78.6826 61.9157 78.6826C63.8152 78.6826 65.2521 78.244 66.2262 77.3425C67.176 76.441 67.663 75.1984 67.663 73.6147Z" fill="black"/>
<path d="M76.4225 68.8635V65.8667C74.4499 65.6718 72.94 66.3783 71.8685 67.9864L71.0892 66.0129H69.7011V78.4877H73.0375V71.8848C73.0375 70.8615 73.2566 70.0574 73.7437 69.497C74.2064 68.9366 75.1075 68.7174 76.4225 68.8635Z" fill="black"/>
<path d="M81.2169 78.4877V66.0129H77.8561V78.4877H81.2169ZM81.6309 63.016C81.6309 62.3825 81.436 61.9196 81.0951 61.6759C80.7298 61.4323 80.2184 61.2861 79.5365 61.2861C78.8546 61.2861 78.3188 61.4323 77.9535 61.6759C77.5639 61.9196 77.3934 62.3825 77.3934 63.016C77.3934 63.6738 77.5639 64.1124 77.9292 64.3561C78.2945 64.5997 78.8303 64.7215 79.5365 64.7215C80.2184 64.7215 80.7298 64.5997 81.0951 64.3561C81.436 64.1124 81.6309 63.6495 81.6309 63.016Z" fill="black"/>
<path d="M96.0797 72.2503C96.0797 70.3985 95.6413 68.8635 94.8133 67.6453C93.961 66.4271 92.6215 65.8179 90.7951 65.8179C89.0173 65.8179 87.7753 66.354 87.0447 67.3773V61.2617H83.7327V78.4877H85.1695L85.9001 76.4897C86.8012 77.9516 88.4085 78.6826 90.6976 78.6826C91.9397 78.6826 92.9868 78.3658 93.8148 77.7323C94.6429 77.0989 95.2273 76.3192 95.5683 75.3933C95.9092 74.4675 96.0797 73.4198 96.0797 72.2503ZM92.6702 72.2503C92.6702 73.4441 92.4511 74.3456 92.0371 74.9791C91.5987 75.6126 90.8681 75.905 89.7966 75.905C88.6763 75.905 87.9457 75.6126 87.5804 75.0035C87.1908 74.4187 87.0203 73.4929 87.0203 72.2503C87.0203 71.6655 87.0447 71.1782 87.1177 70.7884C87.1664 70.3985 87.2882 70.0331 87.483 69.6676C87.6535 69.3265 87.9214 69.0585 88.311 68.8879C88.6763 68.7174 89.1634 68.6199 89.7479 68.6199C90.8194 68.6199 91.5744 68.9366 92.0127 69.5701C92.4511 70.2036 92.6702 71.0807 92.6702 72.2503Z" fill="black"/>
<path d="M109.443 74.7111H105.912C105.596 75.637 104.841 76.0999 103.647 76.0999C102.016 76.0999 101.115 75.2715 100.969 73.566H109.419C109.517 72.5426 109.492 71.568 109.346 70.6909C109.2 69.8138 108.908 68.9854 108.494 68.2301C108.08 67.4991 107.471 66.9144 106.643 66.4758C105.815 66.0372 104.841 65.8179 103.72 65.8179C99.6048 65.8179 97.5591 67.962 97.5591 72.2503C97.5591 76.5385 99.6291 78.6826 103.769 78.6826C105.62 78.6826 107.008 78.3171 107.909 77.5862C108.786 76.8552 109.297 75.8806 109.443 74.7111ZM105.961 71.0077H100.969C100.993 70.2523 101.212 69.6432 101.626 69.1559C102.04 68.6686 102.649 68.425 103.453 68.425C104.281 68.425 104.914 68.6686 105.328 69.1559C105.742 69.6432 105.961 70.2767 105.961 71.0077Z" fill="black"/>
</svg>
