<svg fill="none" height="256" viewBox="0 0 968 256" width="968" xmlns="http://www.w3.org/2000/svg"><g fill="#000"><path d="m.192755 194.853h44.022245c0 17.099 13.3738 26.475 37.2114 26.475 20.5566 0 31.9486-7.109 31.9486-16.792 0-30.336-109.59112-8.702-109.59112-67.169 0-34.565 26.43812-52.2768 74.36102-52.2768 47.9231 0 74.3611 20.0408 74.3611 58.4668h-41.731c-1.982-17.773-10.093-24.882-33.9304-24.882-22.4754 0-29.3481 8.09-29.3481 16.486 0 29.049 109.9005 4.841 109.9005 67.475 0 31.624-30.029 52.951-75.0418 52.951-54.7956 0-82.22436-20.04-82.22436-60.673z"/><path d="m173.991 24.7238h44.703v228.2282h-44.703z"/><path d="m287.792 87.6642h-45.013v165.2878h45.013z"/><path d="m303.828 170.339c0-43.881 17.956-85.2487 70.77-85.2487 28.358 0 43.032 10.6637 49.904 20.6537v-81.0202h44.704v228.2282h-18.885l-21.608-18.999c-13.993 16.18-34.983 21.573-53.124 21.573-52.505 0-71.761-41.675-71.761-85.249zm84.515 48.415c31.33 0 37.212-19.366 37.212-48.415 0-27.456-4.891-47.803-36.84-47.803s-39.131 19.366-39.131 47.803c0 28.436 8.173 48.415 38.821 48.415z"/><path d="m486.79 170.339c0-41.307 13.683-85.2488 81.233-85.2488 63.588 0 82.534 50.3768 77.643 102.6538h-113.182c1.3 23.595 16.284 33.584 35.911 33.584s28.357-8.702 30.339-18.385h47.303c-2.91 27.762-22.165 52.644-76.032 52.644-68.479 0-83.153-42.593-83.153-85.248zm112.872-16.486c-.681-21.328-10.092-34.198-33.929-34.198-22.538 0-32.321 12.932-33.249 34.198z"/><path d="m287.978 87.4804-46.004-28.0075v-34.8103h46.004z"/></g><path d="m933.823 16.818c0-8.57998 3.219-16.608405 17.088-16.608405s17.151 8.028425 17.151 16.608405c0 8.58-3.158 16.6084-17.151 16.6084s-17.088-7.9671-17.088-16.6084zm17.088 12.1959c9.659 0 11.888-5.5157 11.888-12.1959 0-6.6801-2.229-12.19584-11.888-12.19584-9.658 0-11.887 5.57704-11.887 12.19584 0 6.6189 2.229 12.1959 11.887 12.1959zm-6.996-20.53074h6.811c6.872 0 7.677 3.30944 7.677 5.63824 0 1.2258-.557 4.5352-4.891 4.5352l5.263 6.6188h-5.759l-4.272-6.6188v6.6188h-4.891v-16.85353zm6.996 7.35424c2.415 0 2.663-1.0418 2.663-1.716 0-.7967-.31-1.8385-2.663-1.8385h-2.105v3.5545z" fill="#c8ff00"/><path d="m655.882 170.339c0-43.881 17.956-85.2487 70.77-85.2487 28.357 0 43.031 10.6637 49.904 20.6537v-81.0202h44.703v228.2282h-18.884l-21.609-18.999c-13.993 16.18-34.982 21.573-53.123 21.573-52.505 0-71.761-41.675-71.761-85.249zm84.515 48.415c31.33 0 37.212-19.366 37.212-48.415 0-27.456-4.892-47.803-36.84-47.803-31.949 0-39.131 19.366-39.131 47.803 0 28.436 8.173 48.415 38.821 48.415z" fill="#000"/><path d="m891.348 24.6626h-45.013v165.2874h45.013z" fill="#000"/><path d="m846.15 190.195 46.003 28.008v34.749h-46.003z" fill="#000"/></svg>